HIERARCHY
ROOT Hips
{
 OFFSET 0.000000 0.000000 0.000000
 CHANNELS 6 Xposition Yposition Zposition Yrotation Xrotation Zrotation
 JOINT Chest
 {
  OFFSET 0.000000 0.098509 0.000000
  CHANNELS 3 Yrotation Xrotation Zrotation
  JOINT Chest2
  {
   OFFSET 0.000000 0.108462 0.000000
   CHANNELS 3 Yrotation Xrotation Zrotation
   JOINT Chest3
   {
    OFFSET 0.000000 0.098000 0.000000
    CHANNELS 3 Yrotation Xrotation Zrotation
    JOINT Chest4
    {
     OFFSET 0.000000 0.098000 0.000000
     CHANNELS 3 Yrotation Xrotation Zrotation
     JOINT Neck
     {
      OFFSET 0.000000 0.138000 0.000000
      CHANNELS 3 Yrotation Xrotation Zrotation
      JOINT Head
      {
       OFFSET 0.000000 0.091220 -0.000000
       CHANNELS 3 Yrotation Xrotation Zrotation
       End Site
       {
        OFFSET 0.000000 0.174643 -0.000000
       }
      }
     }
     JOINT RightCollar
     {
      OFFSET -0.030000 0.077000 0.000000
      CHANNELS 3 Yrotation Xrotation Zrotation
      JOINT RightShoulder
      {
       OFFSET -0.140000 0.000000 0.000000
       CHANNELS 3 Yrotation Xrotation Zrotation
       JOINT RightElbow
       {
        OFFSET -0.300000 0.000000 0.000000
        CHANNELS 3 Yrotation Xrotation Zrotation
        JOINT RightWrist
        {
         OFFSET -0.245204 0.000000 0.000000
         CHANNELS 3 Yrotation Xrotation Zrotation
         End Site
         {
          OFFSET -0.183000 0.000000 0.000000
         }
        }
       }
      }
     }
     JOINT LeftCollar
     {
      OFFSET 0.030000 0.077000 0.000000
      CHANNELS 3 Yrotation Xrotation Zrotation
      JOINT LeftShoulder
      {
       OFFSET 0.140000 0.000000 0.000000
       CHANNELS 3 Yrotation Xrotation Zrotation
       JOINT LeftElbow
       {
        OFFSET 0.300000 0.000000 0.000000
        CHANNELS 3 Yrotation Xrotation Zrotation
        JOINT LeftWrist
        {
         OFFSET 0.245204 0.000000 0.000000
         CHANNELS 3 Yrotation Xrotation Zrotation
         End Site
         {
          OFFSET 0.183000 0.000000 0.000000
         }
        }
       }
      }
     }
    }
   }
  }
 }
 JOINT RightHip
 {
  OFFSET -0.080000 0.000000 0.000000
  CHANNELS 3 Yrotation Xrotation Zrotation
  JOINT RightKnee
  {
   OFFSET 0.000000 -0.416481 0.000000
   CHANNELS 3 Yrotation Xrotation Zrotation
   JOINT RightAnkle
   {
    OFFSET 0.000000 -0.406342 0.000000
    CHANNELS 3 Yrotation Xrotation Zrotation
    JOINT RightToe
    {
     OFFSET 0.000000 -0.065000 0.147000
     CHANNELS 3 Yrotation Xrotation Zrotation
     End Site
     {
      OFFSET 0.000000 -0.015000 0.064000
     }
    }
   }
  }
 }
 JOINT LeftHip
 {
  OFFSET 0.080000 0.000000 0.000000
  CHANNELS 3 Yrotation Xrotation Zrotation
  JOINT LeftKnee
  {
   OFFSET 0.000000 -0.416481 0.000000
   CHANNELS 3 Yrotation Xrotation Zrotation
   JOINT LeftAnkle
   {
    OFFSET 0.000000 -0.406342 0.000000
    CHANNELS 3 Yrotation Xrotation Zrotation
    JOINT LeftToe
    {
     OFFSET 0.000000 -0.065000 0.147000
     CHANNELS 3 Yrotation Xrotation Zrotation
     End Site
     {
      OFFSET 0.000000 -0.015000 0.064000
     }
    }
   }
  }
 }
}
MOTION
Frames: 10
Frame Time: 0.004167
-0.118062 0.896314 0.068505 -106.952073 -7.423550 -1.565479 0.064661 4.676422 1.281506 0.015790 2.078583 0.568418 0.015790 2.078583 0.568418 0.009907 1.558953 0.426213 -0.257659 15.552113 -1.107358 -0.070414 -7.299783 -1.971867 0.100090 -4.461351 7.443184 0.365957 -2.381888 76.397694 1.248703 -0.106275 3.117551 -5.376695 0.163684 7.524030 0.088342 -3.939454 -8.887578 -0.314562 -2.355584 -78.911060 -0.427617 -0.026008 -5.055019 2.320223 -0.063762 2.623291 0.022725 8.318824 0.689267 0.529526 5.820434 -0.808063 -0.376680 -4.775505 0.519569 -0.020037 -1.936046 1.185796 0.132696 11.503203 4.045431 0.264973 2.414846 -1.316186 -0.051128 -6.586708 -6.455826 0.002844 0.080178 4.063231
-0.118058 0.903612 0.068510 -106.950023 -7.416514 -1.563668 0.064924 4.673482 1.280795 0.015922 2.077277 0.568100 0.015922 2.077277 0.568100 0.010009 1.557974 0.425974 -0.257849 15.553550 -1.107464 -0.070751 -7.297115 -1.971983 0.100985 -4.461533 7.443099 0.364262 -2.382341 76.397646 1.247327 -0.103667 3.115499 -5.375807 0.166589 7.527966 0.088790 -3.939416 -8.887699 -0.313468 -2.356080 -78.910946 -0.427769 -0.027195 -5.054508 2.320426 -0.065614 2.622296 0.020203 8.312577 0.685935 0.528931 5.819274 -0.808116 -0.375886 -4.774714 0.521706 -0.020025 -1.936426 1.184853 0.131541 11.496262 4.042683 0.264291 2.413413 -1.315905 -0.051789 -6.583956 -6.455106 0.001774 0.062977 3.248684
-0.118061 0.903726 0.068513 -106.948015 -7.415835 -1.563616 0.065715 4.673316 1.280568 0.016276 2.077205 0.567992 0.016276 2.077205 0.567992 0.010275 1.557920 0.425892 -0.257968 15.555336 -1.106968 -0.071181 -7.293807 -1.970997 0.101675 -4.461375 7.443656 0.362282 -2.383038 76.397679 1.245137 -0.101538 3.113751 -5.374191 0.169223 7.530652 0.088686 -3.939351 -8.887373 -0.312802 -2.355575 -78.911069 -0.428918 -0.029274 -5.053743 2.319849 -0.067661 2.622011 0.017797 8.312585 0.684308 0.528848 5.818301 -0.808160 -0.375569 -4.774285 0.523537 0.003227 -0.812187 1.183733 0.131130 11.495870 4.043151 0.265141 2.412044 -1.316665 -0.053656 -6.581972 -6.455150 0.001103 0.049649 2.597131
-0.118057 0.903756 0.068521 -106.945968 -7.415446 -1.563584 0.066734 4.673461 1.280486 0.016729 2.077272 0.567945 0.016729 2.077272 0.567945 0.010614 1.557971 0.425855 -0.258133 15.556581 -1.106711 -0.071602 -7.291499 -1.970445 0.100834 -4.461946 7.443606 0.361688 -2.383291 76.398007 1.242899 -0.098779 3.111960 -5.372862 0.170373 7.533160 0.087873 -3.939902 -8.887468 -0.311719 -2.354681 -78.911125 -0.430009 -0.032602 -5.053215 2.319645 -0.068323 2.622523 0.015361 8.312898 0.682225 0.528822 5.817143 -0.807323 -0.374979 -4.773983 0.524775 0.005246 -0.714328 1.183298 0.131098 11.495897 4.043183 0.267278 2.410714 -1.316744 -0.057526 -6.579843 -6.455030 0.000662 0.038727 2.075690
-0.118057 0.903769 0.068529 -106.943909 -7.414906 -1.564048 0.067970 4.673178 1.280596 0.017278 2.077150 0.567981 0.017278 2.077150 0.567981 0.011026 1.557880 0.425881 -0.258397 15.557850 -1.106505 -0.072189 -7.289149 -1.969951 0.099936 -4.461442 7.443842 0.360385 -2.384180 76.397731 1.241175 -0.095543 3.110825 -5.372080 0.169849 7.533970 0.086692 -3.939394 -8.887275 -0.310647 -2.354101 -78.911409 -0.431010 -0.034909 -5.052627 2.319333 -0.070665 2.622451 0.013556 8.312931 0.679945 0.528952 5.816589 -0.805576 -0.374904 -4.773368 0.525897 0.005848 -0.685415 1.182928 0.130160 11.495924 4.043183 0.270393 2.409834 -1.316914 -0.061331 -6.578415 -6.454652 0.000381 0.030130 1.658780
-0.118056 0.903774 0.068539 -106.941653 -7.414799 -1.564533 0.069013 4.673376 1.280874 0.017737 2.077241 0.568094 0.017737 2.077241 0.568094 0.011370 1.557949 0.425964 -0.258467 15.558817 -1.106507 -0.072333 -7.287354 -1.969921 0.100170 -4.461962 7.444451 0.358341 -2.384373 76.396703 1.239244 -0.093207 3.110048 -5.370599 0.169003 7.535394 0.085380 -3.939596 -8.888181 -0.309804 -2.353675 -78.911042 -0.432473 -0.037966 -5.051938 2.319857 -0.072802 2.622092 0.011897 8.313645 0.678182 0.528304 5.815560 -0.804036 -0.374573 -4.772466 0.527058 0.006178 -0.669578 1.182227 0.128973 11.496233 4.042388 0.274211 2.408257 -1.316137 -0.065532 -6.575545 -6.454355 0.000180 0.022805 1.325379
-0.118055 0.903777 0.068551 -106.939358 -7.414785 -1.565208 0.070164 4.673725 1.281053 0.018246 2.077399 0.568162 0.018246 2.077399 0.568162 0.011751 1.558068 0.426013 -0.258552 15.559743 -1.106247 -0.072600 -7.285637 -1.969397 0.100784 -4.463545 7.445809 0.356528 -2.382422 76.395172 1.238863 -0.092625 3.109400 -5.370391 0.168934 7.536723 0.083500 -3.939645 -8.887827 -0.309551 -2.353885 -78.911290 -0.432952 -0.041531 -5.051292 2.320046 -0.074689 2.621248 0.010359 8.314397 0.676255 0.527697 5.814554 -0.802681 -0.374482 -4.771814 0.528370 0.006413 -0.658291 1.181957 0.127730 11.495813 4.041914 0.276837 2.408091 -1.314980 -0.068715 -6.573207 -6.454521 0.000043 0.016875 1.058818
-0.118056 0.903777 0.068562 -106.937337 -7.414427 -1.566159 0.071466 4.673942 1.281238 0.018822 2.077499 0.568231 0.018822 2.077499 0.568231 0.012182 1.558143 0.426063 -0.258633 15.560212 -1.106010 -0.072847 -7.284771 -1.968918 0.100968 -4.465050 7.447174 0.355928 -2.380783 76.394155 1.238320 -0.092334 3.108140 -5.370139 0.168091 7.538529 0.082092 -3.939968 -8.887163 -0.310619 -2.353989 -78.911727 -0.432776 -0.045403 -5.050599 2.319963 -0.075774 2.620895 0.008991 8.314699 0.675527 0.526139 5.814318 -0.802120 -0.373355 -4.771875 0.529571 0.006592 -0.649675 1.181582 0.127409 11.495497 4.042020 0.278089 2.407761 -1.314551 -0.070782 -6.572096 -6.454559 -0.000019 0.012855 0.846103
-0.118057 0.903775 0.068576 -106.934650 -7.414402 -1.567358 0.072542 4.674509 1.281534 0.019295 2.077754 0.568352 0.019295 2.077754 0.568352 0.012537 1.558335 0.426151 -0.258726 15.560814 -1.105818 -0.073099 -7.283655 -1.968522 0.100867 -4.467155 7.447676 0.356223 -2.379134 76.393684 1.237304 -0.092504 3.107487 -5.369326 0.166415 7.540994 0.080711 -3.940321 -8.886618 -0.311415 -2.354364 -78.911555 -0.433433 -0.048049 -5.049958 2.320365 -0.076649 2.620403 0.007330 8.314801 0.675556 0.525594 5.814370 -0.803127 -0.373518 -4.771906 0.531967 0.006749 -0.642004 1.181157 0.126797 11.495452 4.042753 0.276971 2.407239 -1.314862 -0.071369 -6.570405 -6.454172 -0.000073 0.009320 0.676064
-0.118060 0.903774 0.068591 -106.931779 -7.415274 -1.568050 0.073469 4.675302 1.281358 0.019706 2.078109 0.568264 0.019706 2.078109 0.568264 0.012845 1.558602 0.426084 -0.258627 15.561124 -1.105374 -0.073084 -7.283083 -1.967726 0.100484 -4.467682 7.448619 0.356910 -2.378499 76.393094 1.236452 -0.093582 3.107369 -5.368558 0.165552 7.542791 0.078965 -3.940036 -8.885717 -0.312227 -2.355732 -78.911245 -0.433595 -0.050645 -5.049373 2.320307 -0.076469 2.619775 0.005933 8.315587 0.675392 0.524777 5.814683 -0.803374 -0.373820 -4.771830 0.532889 0.006874 -0.636071 1.181197 0.125874 11.496465 4.042735 0.275073 2.406796 -1.315387 -0.070924 -6.569398 -6.452994 -0.000093 0.006852 0.539880
